 <svg  version="1.0" xmlns="http://www.w3.org/2000/svg"  width="597.000000pt" height="759.000000pt" viewBox="0 0 597.000000 759.000000"  preserveAspectRatio="xMidYMid meet">  <g transform="translate(0.000000,759.000000) scale(0.100000,-0.100000)" fill="#fbefda" stroke="none"> <path d="M2880 7574 c0 -9 -9 -18 -20 -21 -11 -3 -23 -16 -26 -29 -3 -13 -10 -24 -14 -24 -4 0 -17 -21 -29 -47 -28 -61 -46 -92 -60 -106 -6 -6 -11 -21 -11 -33 0 -12 -7 -24 -15 -28 -8 -3 -15 -16 -15 -29 0 -14 -7 -30 -15 -37 -8 -7 -15 -22 -15 -34 0 -12 -7 -31 -15 -42 -8 -10 -15 -32 -15 -49 0 -16 -7 -39 -15 -49 -8 -11 -15 -34 -15 -52 0 -17 -7 -51 -15 -74 -19 -53 -22 -383 -4 -427 7 -15 15 -46 19 -68 11 -54 24 -92 77 -215 8 -19 19 -42 24 -50 4 -8 20 -37 34 -65 24 -48 33 -64 55 -102 6 -10 15 -27 20 -38 6 -11 19 -33 30 -50 11 -16 31 -54 45 -82 15 -29 30 -55 36 -58 5 -4 9 -14 9 -25 0 -10 7 -20 15 -24 8 -3 15 -14 15 -24 0 -11 7 -25 15 -32 8 -7 15 -23 15 -35 0 -12 7 -28 15 -35 8 -7 15 -20 15 -29 0 -10 7 -26 15 -37 8 -10 15 -31 15 -45 0 -15 7 -32 15 -39 8 -7 15 -25 15 -39 0 -15 7 -36 15 -47 8 -10 15 -33 15 -50 0 -17 7 -51 17 -75 24 -65 24 -573 -1 -638 -9 -24 -16 -60 -16 -81 0 -21 -7 -54 -15 -73 -8 -20 -15 -51 -15 -69 -1 -18 -7 -44 -15 -58 -8 -14 -14 -41 -15 -60 0 -20 -6 -44 -14 -55 -7 -11 -16 -36 -19 -55 -5 -36 -27 -102 -52 -157 -8 -17 -15 -38 -15 -47 0 -9 -4 -16 -10 -16 -5 0 -10 -7 -10 -15 0 -8 5 -15 10 -15 19 0 60 32 60 46 0 8 4 14 8 14 5 0 18 17 30 38 11 21 31 50 44 64 13 14 28 32 33 41 6 9 33 48 60 89 28 40 61 93 74 118 12 25 33 63 46 85 13 22 24 47 25 56 0 9 7 22 15 29 8 7 15 23 15 35 0 12 7 28 15 35 8 7 15 25 15 39 0 15 7 36 15 47 8 10 15 33 15 50 0 16 7 39 15 50 8 10 15 37 15 60 0 22 7 63 15 90 10 35 15 96 15 209 0 113 -5 174 -15 209 -8 27 -15 65 -15 85 -1 20 -7 47 -15 61 -8 14 -14 39 -15 56 0 16 -7 39 -15 50 -8 10 -15 31 -15 45 0 15 -7 32 -15 39 -8 7 -15 23 -15 35 0 12 -7 28 -15 35 -8 7 -15 18 -15 25 0 14 -57 127 -90 180 -32 51 -44 72 -70 122 -14 26 -29 51 -33 54 -10 7 -30 41 -46 76 -5 11 -15 24 -20 28 -6 3 -11 15 -11 26 0 10 -4 19 -10 19 -5 0 -17 15 -25 33 -21 45 -64 120 -75 131 -6 6 -10 18 -10 27 0 9 -7 22 -15 29 -8 7 -15 20 -15 30 0 10 -7 23 -15 30 -8 7 -15 22 -15 34 0 11 -7 30 -15 40 -8 11 -15 30 -15 42 0 12 -7 35 -15 50 -8 16 -15 45 -15 65 0 19 -5 62 -11 95 -14 71 4 376 26 464 8 30 16 74 19 96 3 23 13 54 21 70 8 16 15 41 15 56 0 15 5 30 10 33 6 3 10 13 10 21 0 8 -4 14 -10 14 -5 0 -10 -7 -10 -16z m-75 -1169 c68 -133 88 -167 161 -280 23 -35 56 -92 74 -127 18 -35 42 -76 54 -93 89 -124 201 -398 233 -570 21 -112 28 -316 13 -385 -26 -123 -46 -192 -55 -193 -6 -1 -13 72 -17 193 -7 202 -15 261 -62 435 -37 135 -167 418 -266 580 -61 100 -164 311 -194 397 -14 42 -29 105 -32 140 -6 56 -5 61 9 48 8 -8 45 -73 82 -145z"/> <path d="M2318 6608 c-16 -11 -28 -28 -28 -37 0 -16 -17 -59 -41 -103 -5 -10 -9 -26 -9 -36 0 -10 -7 -27 -15 -38 -8 -10 -15 -28 -15 -40 0 -11 -7 -29 -15 -40 -8 -10 -15 -31 -15 -45 0 -15 -7 -43 -15 -62 -21 -51 -21 -293 0 -321 8 -11 15 -32 15 -47 0 -14 7 -32 15 -39 8 -7 15 -20 15 -30 0 -10 7 -23 15 -30 8 -7 15 -16 15 -21 0 -5 14 -28 30 -51 17 -22 30 -47 30 -55 0 -7 4 -13 9 -13 9 0 103 -142 114 -172 3 -10 11 -18 17 -18 5 0 10 -11 10 -24 0 -13 7 -26 15 -30 8 -3 15 -16 15 -29 0 -14 7 -30 15 -37 8 -7 15 -24 15 -39 0 -14 7 -35 15 -45 8 -11 15 -32 15 -47 0 -14 7 -44 17 -65 14 -33 16 -77 16 -269 0 -152 -4 -245 -13 -275 -6 -25 -17 -69 -23 -97 -6 -29 -15 -53 -19 -53 -4 0 -8 -7 -8 -15 0 -54 84 42 121 138 6 15 15 27 20 27 5 0 9 8 9 19 0 10 7 24 15 31 8 7 15 20 15 30 0 10 7 23 15 30 8 7 15 22 15 34 0 12 7 31 15 42 8 10 15 30 15 44 0 14 7 34 15 44 8 11 15 34 15 52 0 17 7 51 15 74 10 28 15 81 15 157 0 78 -5 125 -15 150 -8 19 -15 50 -15 68 0 18 -7 38 -15 45 -8 7 -15 21 -15 32 0 11 -6 32 -14 46 -8 15 -17 34 -20 42 -4 8 -15 29 -26 45 -11 17 -24 39 -30 50 -15 29 -32 56 -62 96 -16 20 -28 42 -28 48 0 7 -7 14 -15 17 -8 4 -15 11 -15 16 0 6 -13 27 -30 48 -16 21 -30 43 -30 49 0 6 -5 11 -10 11 -6 0 -15 10 -20 23 -6 12 -19 36 -30 52 -11 17 -24 40 -29 52 -5 11 -15 24 -20 28 -6 3 -11 16 -11 29 0 12 -5 27 -12 34 -31 31 -46 270 -24 380 9 44 16 91 16 105 0 14 6 27 13 30 8 3 9 8 2 15 -7 7 -18 5 -37 -10z m66 -844 c6 -10 23 -34 39 -52 15 -18 27 -37 27 -42 0 -6 20 -35 45 -66 25 -30 45 -59 45 -64 0 -5 16 -35 35 -67 34 -56 45 -103 25 -103 -5 0 -10 11 -10 24 0 13 -4 26 -8 28 -5 2 -15 14 -23 29 -23 42 -50 85 -128 202 -40 62 -76 118 -79 126 -8 21 20 8 32 -15z m266 -449 c0 -8 -4 -17 -10 -20 -6 -4 -10 5 -10 20 0 15 4 24 10 20 6 -3 10 -12 10 -20z"/> <path d="M2119 4790 c-42 -4 -83 -11 -90 -16 -7 -4 -52 -11 -99 -15 -84 -7 -161 -20 -250 -41 -25 -6 -67 -14 -95 -17 -27 -4 -60 -12 -72 -19 -12 -7 -37 -12 -55 -12 -18 -1 -44 -7 -58 -15 -14 -8 -39 -14 -57 -15 -17 0 -44 -6 -60 -14 -37 -18 -92 -37 -125 -43 -15 -3 -33 -11 -39 -19 -6 -8 -22 -14 -34 -14 -12 0 -28 -7 -35 -15 -7 -8 -20 -15 -30 -15 -10 0 -23 -7 -30 -15 -7 -8 -20 -15 -30 -15 -10 0 -23 -7 -30 -15 -7 -8 -19 -15 -26 -15 -8 0 -14 -5 -14 -10 0 -6 -11 -15 -25 -20 -28 -11 -155 -129 -155 -145 0 -6 -5 -16 -12 -23 -24 -24 -41 -90 -49 -192 -5 -58 -13 -127 -18 -155 -12 -64 -13 -562 0 -635 5 -30 12 -89 15 -130 3 -41 12 -92 20 -113 8 -20 14 -57 14 -81 0 -24 7 -57 15 -72 8 -16 15 -47 15 -69 0 -22 7 -49 15 -59 8 -11 15 -36 15 -55 0 -20 7 -45 15 -55 8 -11 15 -32 15 -46 0 -14 7 -35 15 -46 8 -10 15 -30 15 -44 0 -14 7 -34 15 -44 8 -11 15 -32 15 -47 0 -14 7 -32 15 -39 8 -7 15 -20 15 -29 0 -10 7 -26 15 -37 8 -10 15 -29 15 -40 0 -12 7 -27 15 -34 8 -7 15 -23 15 -35 0 -12 7 -28 15 -35 8 -7 15 -20 15 -30 0 -10 7 -23 15 -30 8 -7 15 -20 15 -30 0 -10 7 -20 15 -24 8 -3 15 -14 15 -25 0 -11 5 -23 11 -26 5 -4 15 -17 20 -28 18 -40 69 -119 83 -128 17 -12 -3 -41 -23 -34 -11 3 -36 -1 -56 -10 -21 -8 -52 -15 -69 -15 -18 0 -41 -7 -52 -15 -10 -8 -30 -15 -44 -15 -14 0 -34 -7 -44 -15 -11 -8 -32 -15 -47 -15 -14 0 -32 -7 -39 -15 -7 -8 -23 -15 -35 -15 -12 0 -28 -7 -35 -15 -7 -8 -23 -15 -35 -15 -12 0 -28 -7 -35 -15 -7 -8 -23 -15 -36 -15 -12 0 -26 -4 -29 -10 -3 -5 -30 -21 -58 -35 -51 -25 -70 -35 -104 -55 -10 -6 -28 -14 -40 -20 -13 -5 -23 -14 -23 -20 0 -5 -7 -10 -15 -10 -7 0 -18 -6 -22 -13 -4 -7 -19 -20 -33 -29 -70 -46 -200 -199 -200 -237 0 -9 -7 -25 -15 -35 -12 -15 -15 -53 -15 -164 0 -144 2 -153 41 -222 5 -8 12 -22 16 -30 10 -23 64 -91 103 -131 37 -37 144 -121 170 -132 8 -4 29 -16 45 -27 17 -11 40 -24 52 -29 11 -5 24 -15 28 -20 3 -6 14 -11 24 -11 10 0 24 -7 31 -15 7 -8 20 -15 30 -15 10 0 23 -7 30 -15 7 -8 21 -15 30 -15 10 0 33 -8 52 -17 18 -9 45 -22 60 -30 14 -7 35 -13 45 -13 10 0 27 -6 38 -14 11 -7 34 -16 50 -18 17 -3 44 -10 60 -16 17 -6 46 -16 65 -22 19 -7 54 -15 78 -20 24 -4 48 -12 54 -18 7 -7 30 -12 52 -12 23 -1 52 -7 66 -15 14 -8 44 -14 68 -15 23 0 59 -7 79 -15 19 -8 52 -15 73 -15 20 0 59 -7 86 -15 27 -8 67 -15 89 -15 22 -1 67 -7 100 -15 33 -8 90 -15 127 -15 36 0 101 -7 145 -15 62 -12 132 -14 353 -9 258 5 309 8 299 19 -11 10 -250 67 -304 71 -33 3 -136 16 -230 30 -93 13 -186 24 -205 24 -53 -1 -233 29 -244 40 -21 21 9 21 166 3 90 -11 177 -20 193 -21 17 0 80 -5 140 -11 144 -14 1115 -15 1275 -2 156 13 200 13 200 2 0 -5 -26 -13 -57 -17 -32 -4 -69 -11 -83 -17 -14 -5 -90 -16 -170 -24 -182 -17 -180 -17 -269 -45 -116 -36 -105 -48 46 -48 70 -1 190 -3 265 -6 91 -4 149 -2 172 6 19 6 95 15 168 20 73 4 146 13 161 19 16 6 50 11 76 11 26 0 70 7 97 15 27 8 68 15 90 15 23 0 58 7 77 15 20 8 52 15 70 15 19 0 51 7 70 15 20 8 51 15 70 15 18 0 42 7 53 15 10 8 35 15 54 15 19 0 44 7 54 15 11 8 34 15 50 15 17 0 40 7 50 15 11 8 31 15 45 15 14 0 35 7 45 15 11 8 29 15 41 15 12 0 30 7 41 15 10 8 29 15 40 15 12 0 27 7 34 15 7 8 23 15 35 15 12 0 28 7 35 15 7 8 20 15 30 15 10 0 23 7 30 15 7 8 20 15 30 15 10 0 23 7 30 15 7 8 21 15 31 15 11 0 19 5 19 10 0 6 10 15 23 20 28 13 53 28 98 63 20 15 40 27 43 27 15 0 165 164 185 202 12 24 25 50 30 58 39 74 41 84 41 189 0 79 -4 112 -15 127 -8 10 -15 29 -15 41 0 12 -4 24 -9 27 -5 4 -19 25 -30 49 -40 82 -230 254 -328 296 -11 6 -24 15 -28 20 -3 6 -14 11 -24 11 -10 0 -24 7 -31 15 -7 8 -20 15 -30 15 -10 0 -23 7 -30 15 -7 8 -20 15 -30 15 -10 0 -23 7 -30 15 -7 8 -23 15 -35 15 -12 0 -28 7 -35 15 -7 8 -25 15 -40 15 -15 0 -33 7 -40 15 -7 8 -25 15 -39 15 -15 0 -36 7 -47 15 -10 8 -30 15 -44 15 -14 0 -36 7 -50 15 -14 8 -42 14 -62 15 -20 0 -39 4 -42 9 -3 5 -22 12 -41 15 -19 4 -35 9 -35 13 0 3 14 22 30 43 17 21 30 43 30 49 0 18 33 28 115 35 164 13 231 22 252 34 12 7 37 12 55 12 19 0 43 7 54 15 10 8 33 15 50 15 17 0 37 7 44 15 7 8 21 15 32 15 18 0 49 14 98 41 8 5 21 11 28 14 32 13 39 16 67 35 17 11 40 24 53 30 12 5 22 14 22 20 0 5 7 10 15 10 8 0 15 4 15 10 0 5 14 17 31 26 40 20 163 143 220 219 67 89 109 154 109 169 0 8 7 19 15 26 8 7 15 20 15 30 0 10 7 23 15 30 8 7 15 22 15 34 0 12 7 31 15 42 8 10 15 31 15 45 0 15 6 42 14 60 21 50 22 458 1 485 -8 10 -15 31 -15 45 0 15 -7 32 -15 39 -8 7 -15 18 -15 26 0 15 -53 97 -90 137 -37 41 -138 116 -180 132 -8 4 -28 12 -45 20 -16 7 -46 16 -65 19 -19 3 -55 10 -80 15 -67 15 -150 13 -206 -4 -27 -8 -67 -15 -90 -15 -22 0 -49 -7 -60 -15 -10 -8 -33 -15 -50 -15 l-31 0 -6 183 c-6 176 -20 264 -45 289 -7 7 -12 18 -12 26 0 16 -148 162 -166 162 -6 0 -14 7 -18 15 -3 8 -15 15 -26 15 -11 0 -23 7 -26 15 -4 8 -14 15 -24 15 -10 0 -23 7 -30 15 -7 8 -20 15 -30 15 -10 0 -23 7 -30 15 -7 8 -22 15 -34 15 -11 0 -30 7 -40 15 -11 8 -30 15 -42 15 -12 0 -27 7 -34 15 -7 8 -27 15 -45 15 -18 0 -38 7 -45 15 -7 8 -29 15 -49 15 -20 1 -47 7 -61 15 -14 8 -41 14 -61 15 -19 0 -40 5 -47 12 -7 7 -36 15 -64 19 -50 6 -76 11 -188 39 -76 18 -74 19 -80 -30 -7 -55 -25 -112 -52 -164 -25 -48 -17 -56 55 -61 30 -2 64 -8 75 -14 12 -6 42 -11 69 -11 26 -1 59 -7 73 -15 14 -8 41 -15 60 -15 19 0 46 -7 60 -15 14 -8 39 -15 55 -15 17 0 41 -7 55 -15 14 -8 36 -15 50 -15 14 0 34 -7 44 -15 11 -8 30 -15 42 -15 12 0 27 -7 34 -15 7 -8 23 -15 35 -15 12 0 28 -7 35 -15 7 -8 21 -15 32 -15 10 0 21 -7 24 -15 4 -8 14 -15 23 -15 9 0 43 -23 74 -51 52 -46 57 -54 57 -92 0 -58 -52 -118 -137 -156 -11 -5 -24 -15 -28 -20 -3 -6 -14 -11 -24 -11 -10 0 -24 -7 -31 -15 -7 -8 -22 -15 -34 -15 -11 0 -30 -7 -40 -15 -11 -8 -29 -15 -40 -15 -12 0 -30 -7 -40 -15 -11 -8 -31 -15 -45 -15 -14 0 -35 -7 -45 -15 -11 -8 -33 -15 -48 -15 -16 0 -45 -7 -65 -15 -19 -8 -52 -15 -72 -15 -20 -1 -47 -7 -61 -15 -14 -8 -46 -14 -71 -15 -26 0 -63 -7 -82 -15 -20 -8 -60 -15 -89 -15 -29 0 -71 -7 -93 -15 -22 -8 -74 -14 -115 -15 -41 0 -107 -7 -145 -15 -56 -12 -161 -15 -540 -14 -258 0 -495 5 -525 10 -30 5 -107 13 -171 18 -64 5 -126 14 -137 20 -11 6 -46 11 -77 11 -30 0 -72 7 -92 15 -19 8 -55 15 -78 15 -23 0 -59 7 -78 15 -20 8 -51 15 -69 15 -18 1 -44 7 -58 15 -14 8 -43 15 -65 15 -22 0 -49 7 -59 15 -11 8 -32 15 -46 15 -14 0 -35 7 -46 15 -10 8 -29 15 -41 15 -19 0 -54 14 -103 42 -8 4 -22 11 -30 14 -8 3 -22 9 -30 14 -8 5 -33 19 -54 30 -22 12 -56 38 -78 58 -34 32 -38 41 -38 84 0 40 5 54 32 83 17 19 37 35 44 35 6 0 14 7 18 15 3 8 12 15 19 15 8 0 20 7 27 15 7 8 20 15 30 15 10 0 23 7 30 15 7 8 23 15 35 15 12 0 28 7 35 15 7 8 22 15 34 15 12 0 31 7 42 15 10 8 31 15 45 15 14 0 34 7 45 15 10 8 35 15 54 15 19 0 46 7 60 15 14 8 41 15 60 15 19 0 46 7 60 15 14 8 41 14 61 15 20 0 53 7 72 15 20 8 61 15 90 15 30 0 76 7 103 15 29 9 90 15 151 15 71 0 104 4 110 13 9 14 20 90 29 195 8 83 22 75 -117 62z m2645 -554 c14 -19 26 -39 26 -44 0 -5 7 -15 15 -22 8 -7 15 -22 15 -34 0 -12 4 -26 9 -31 5 -6 15 -66 21 -135 15 -171 16 -177 68 -233 62 -65 110 -89 162 -81 27 4 40 3 40 -5 0 -6 -11 -11 -25 -11 -50 0 -185 -122 -228 -206 -10 -19 -16 -61 -17 -120 -2 -93 -19 -194 -32 -194 -5 0 -6 71 -2 158 4 86 6 164 5 172 -1 8 -2 52 -1 96 2 119 -12 159 -79 227 -45 44 -65 57 -88 57 -16 0 -32 3 -36 6 -3 3 24 40 60 81 36 42 74 96 85 121 24 54 26 136 3 158 -22 22 -47 74 -36 74 5 0 20 -15 35 -34z m-3894 7 c0 -5 -7 -28 -16 -53 -34 -97 -3 -185 111 -302 24 -26 40 -50 35 -53 -6 -3 -15 -3 -20 0 -32 20 -150 -71 -189 -143 -9 -16 -12 -79 -11 -210 2 -223 3 -209 -12 -194 -7 7 -14 98 -19 274 -9 256 -5 342 22 493 6 33 13 69 15 80 8 45 85 143 84 108z m77 -509 c3 -8 15 -20 27 -25 11 -5 28 -13 36 -18 8 -5 22 -12 30 -15 8 -3 22 -10 30 -14 47 -27 84 -42 99 -42 9 0 26 -7 37 -15 10 -8 30 -15 44 -15 14 0 36 -7 50 -15 14 -8 41 -15 60 -15 19 0 46 -7 60 -15 14 -8 39 -14 56 -15 17 0 48 -7 67 -15 20 -8 55 -15 77 -15 22 0 57 -7 77 -15 19 -8 55 -15 80 -15 24 0 60 -7 80 -15 20 -8 66 -15 104 -15 37 0 80 -5 96 -11 15 -7 93 -16 173 -20 80 -5 179 -13 220 -18 95 -12 607 -12 720 0 47 5 148 13 225 18 77 6 158 14 180 20 22 6 63 11 91 11 28 0 71 7 94 15 23 8 66 15 94 15 28 1 62 7 76 15 14 8 45 15 70 15 25 0 56 7 70 15 14 8 43 15 65 15 22 0 51 7 65 15 14 8 39 15 55 15 17 0 41 7 55 15 14 8 36 15 50 15 14 0 34 7 44 15 11 8 29 15 40 15 12 0 30 7 40 15 11 8 27 15 37 15 9 0 22 7 29 15 7 8 19 15 26 15 8 0 37 16 65 36 28 20 55 32 59 27 11 -12 -6 -484 -19 -516 -6 -16 -11 -57 -11 -91 0 -35 -7 -83 -15 -106 -8 -23 -15 -58 -15 -77 0 -18 -7 -50 -15 -70 -8 -19 -15 -50 -15 -67 0 -18 -7 -41 -15 -52 -8 -10 -15 -32 -15 -49 0 -16 -7 -41 -15 -55 -8 -14 -14 -37 -15 -51 0 -15 -7 -32 -15 -39 -8 -7 -15 -25 -15 -40 0 -15 -7 -33 -15 -40 -8 -7 -15 -24 -15 -39 0 -14 -7 -35 -15 -45 -8 -11 -15 -27 -15 -37 0 -9 -7 -22 -15 -29 -8 -7 -15 -23 -15 -35 0 -12 -7 -28 -15 -35 -8 -7 -15 -20 -15 -30 0 -10 -7 -23 -15 -30 -8 -7 -15 -20 -15 -30 0 -10 -7 -23 -15 -30 -8 -7 -15 -20 -15 -30 0 -10 -7 -20 -15 -24 -8 -3 -15 -12 -15 -19 0 -8 -13 -33 -30 -55 -16 -23 -30 -45 -30 -48 0 -3 -13 -23 -30 -44 -16 -21 -30 -42 -30 -47 0 -5 -13 -23 -29 -41 -16 -17 -50 -58 -74 -89 -48 -63 -183 -195 -262 -258 -27 -21 -55 -44 -60 -49 -15 -15 -47 -36 -67 -42 -10 -4 -18 -10 -18 -15 0 -5 -10 -14 -22 -19 -13 -6 -36 -19 -53 -30 -16 -11 -37 -23 -45 -26 -8 -3 -19 -8 -25 -10 -5 -2 -17 -8 -25 -13 -8 -5 -22 -12 -30 -15 -8 -3 -22 -10 -30 -14 -50 -28 -84 -42 -105 -42 -12 0 -28 -7 -35 -15 -7 -8 -27 -15 -44 -15 -17 -1 -42 -7 -56 -15 -14 -8 -41 -15 -60 -15 -19 0 -53 -7 -75 -15 -59 -21 -471 -21 -522 0 -19 8 -52 15 -72 15 -20 1 -47 7 -61 15 -14 8 -38 15 -55 15 -16 0 -39 7 -49 15 -11 8 -30 15 -42 15 -12 0 -27 7 -34 15 -7 8 -23 15 -35 15 -12 0 -28 7 -35 15 -7 8 -20 15 -30 15 -10 0 -23 7 -30 15 -7 8 -20 15 -30 15 -10 0 -20 7 -24 15 -3 8 -15 15 -26 15 -11 0 -20 4 -20 9 0 5 -21 20 -46 33 -26 12 -49 28 -51 35 -3 7 -10 13 -15 13 -21 0 -117 81 -237 201 -105 105 -119 120 -203 234 -37 49 -71 95 -76 100 -4 6 -11 17 -15 25 -4 8 -16 29 -27 45 -11 17 -24 39 -30 50 -6 11 -19 34 -30 50 -19 28 -22 35 -35 68 -3 6 -9 19 -14 27 -5 8 -12 22 -15 30 -3 8 -10 22 -15 30 -5 8 -17 33 -26 55 -10 22 -24 53 -31 68 -8 16 -14 37 -14 47 0 9 -7 23 -15 30 -8 7 -15 24 -15 39 0 14 -7 35 -15 45 -8 11 -15 31 -15 45 0 14 -7 35 -15 45 -8 11 -15 34 -15 50 0 17 -7 40 -15 50 -8 11 -15 34 -15 50 -1 17 -7 42 -15 56 -8 14 -14 39 -15 56 0 17 -7 51 -15 74 -8 23 -15 62 -15 86 0 23 -5 55 -11 71 -10 25 -21 182 -33 475 -4 104 -2 114 27 117 4 1 10 -6 14 -15z m4383 -54 c0 -5 -7 -10 -15 -10 -8 0 -15 5 -15 10 0 6 7 10 15 10 8 0 15 -4 15 -10z m245 -50 c72 -31 193 -173 211 -246 4 -16 12 -40 19 -54 74 -150 31 -383 -124 -665 -67 -123 -217 -287 -326 -356 -27 -17 -62 -40 -77 -50 -15 -11 -32 -19 -37 -19 -5 0 -22 -6 -38 -14 -152 -73 -153 -73 -153 -56 0 5 37 28 83 50 45 23 89 48 98 56 8 8 20 14 26 14 6 0 17 7 24 16 7 9 37 31 65 49 65 42 194 172 243 245 20 30 43 62 52 70 9 8 31 51 49 95 17 44 36 85 41 91 29 35 43 133 42 289 -1 244 -19 278 -253 478 -44 37 -44 38 -15 31 17 -3 48 -14 70 -24z m-131 -115 c11 -8 27 -15 36 -15 16 0 111 -85 123 -111 4 -7 11 -21 16 -29 36 -59 42 -97 38 -220 -4 -119 -14 -178 -43 -245 -30 -70 -80 -167 -91 -177 -7 -6 -13 -15 -13 -21 0 -13 -54 -79 -117 -142 -83 -83 -125 -116 -165 -131 -9 -3 -19 -12 -22 -20 -3 -8 -14 -14 -25 -14 -11 0 -22 -4 -25 -9 -4 -5 -27 -19 -54 -31 -26 -11 -60 -28 -75 -35 -16 -8 -37 -15 -48 -15 -11 0 -32 -6 -47 -14 -15 -7 -47 -16 -72 -19 -25 -3 -60 -13 -78 -22 -18 -9 -39 -14 -47 -11 -21 8 -18 49 5 79 11 14 20 34 20 45 0 11 7 25 15 32 8 7 15 24 15 39 0 14 7 35 15 45 8 11 15 31 15 45 0 14 7 35 15 45 8 11 15 34 15 51 0 17 7 40 15 51 8 10 15 35 15 54 0 19 7 46 15 60 8 14 14 42 15 63 0 21 7 54 15 74 8 19 15 54 15 77 0 23 6 65 14 92 8 27 17 114 20 194 8 168 12 190 35 190 10 0 26 7 37 15 10 8 33 15 49 15 17 0 41 7 55 15 36 21 267 20 294 0z m-4634 -387 c2 -25 74 -341 89 -388 86 -279 200 -547 298 -703 24 -37 43 -70 43 -73 0 -2 19 -30 43 -60 23 -31 67 -91 97 -134 30 -43 66 -90 80 -105 14 -15 38 -41 53 -58 15 -18 32 -36 38 -42 94 -92 140 -135 145 -135 6 0 75 -57 120 -100 12 -11 25 -20 30 -20 5 0 25 -13 44 -28 38 -31 124 -84 153 -95 9 -3 17 -13 17 -22 0 -19 -19 -20 -26 0 -4 8 -18 15 -33 16 -14 0 -38 8 -52 17 -14 9 -54 35 -88 57 -53 35 -197 140 -241 177 -8 7 -59 54 -113 105 -54 51 -119 105 -143 119 -49 29 -34 28 -224 10 -14 -2 -33 -6 -43 -11 -10 -4 -22 -4 -27 1 -9 9 20 43 81 99 35 33 59 78 59 113 0 21 -20 73 -52 135 -85 168 -128 257 -128 269 0 5 -20 53 -45 105 -25 52 -45 101 -45 109 0 8 -4 22 -9 32 -24 45 -88 278 -121 443 -22 106 -26 169 -10 169 6 0 10 -1 10 -2z m3990 -154 c0 -25 -4 -43 -9 -40 -10 7 -22 76 -15 88 12 19 24 -6 24 -48z m-30 -142 c0 -39 -30 -150 -56 -209 -8 -17 -14 -40 -14 -51 0 -12 -4 -23 -9 -26 -5 -3 -11 -20 -14 -38 -3 -18 -13 -58 -22 -88 -39 -125 -35 -147 43 -229 56 -58 61 -61 106 -61 31 0 45 -4 41 -11 -4 -6 -19 -9 -35 -7 -15 1 -34 -2 -41 -8 -23 -16 -88 -36 -99 -29 -6 4 -34 -1 -63 -9 -81 -23 -197 -149 -197 -214 0 -29 54 -104 99 -137 73 -54 52 -65 -94 -44 -122 17 -170 -9 -365 -196 -143 -136 -390 -304 -525 -356 -60 -23 -55 -22 -55 -5 0 8 30 29 68 48 146 73 202 110 347 225 180 145 367 364 502 589 83 138 192 360 248 504 29 75 37 94 47 113 9 18 23 81 38 165 4 24 12 48 18 54 7 7 12 22 12 35 0 13 5 23 10 23 6 0 10 -17 10 -38z m-3822 -1215 c3 -14 -4 -17 -42 -17 -25 0 -46 -4 -46 -9 0 -5 -10 -13 -22 -16 -40 -12 -286 -129 -378 -181 -25 -14 -84 -64 -132 -111 -102 -101 -149 -187 -151 -275 -1 -66 52 -186 113 -255 40 -46 141 -125 183 -144 12 -5 40 -20 62 -33 93 -54 141 -77 201 -97 36 -12 67 -26 70 -30 3 -5 17 -9 32 -9 30 0 96 -28 127 -54 19 -16 18 -16 -20 -10 -22 4 -44 10 -50 14 -5 4 -21 10 -35 13 -76 16 -369 148 -415 187 -11 9 -41 28 -66 43 -99 56 -235 224 -269 330 -26 84 33 207 157 331 48 47 96 89 107 92 12 3 30 14 41 24 36 32 218 120 247 120 9 0 21 7 28 15 7 8 18 15 26 15 7 0 28 9 46 19 18 10 48 22 66 26 18 4 45 13 60 21 33 17 56 14 60 -9z m3807 -13 c12 -12 13 -20 6 -27 -8 -8 -19 -4 -38 16 -26 26 -27 27 -6 27 12 0 29 -7 38 -16z m102 -40 c12 -8 30 -14 39 -14 9 0 54 -18 100 -40 46 -22 85 -40 87 -40 18 0 186 -113 238 -160 81 -73 157 -210 117 -210 -7 0 -31 30 -53 66 -44 72 -74 103 -185 186 -41 31 -86 67 -100 79 -14 13 -33 22 -43 21 -9 -2 -20 4 -23 12 -3 9 -17 16 -30 16 -14 0 -27 7 -30 15 -4 8 -18 15 -33 15 -15 0 -36 7 -47 15 -10 8 -27 15 -36 15 -9 0 -30 12 -45 26 l-28 25 25 -6 c14 -4 35 -13 47 -21z m-3504 -31 c43 -59 205 -216 270 -262 26 -19 47 -38 47 -42 0 -3 8 -9 18 -13 24 -8 56 -29 65 -43 4 -7 14 -13 21 -13 8 0 16 -7 20 -15 3 -8 15 -15 26 -15 11 0 20 -4 20 -10 0 -5 24 -21 53 -35 64 -33 143 -72 179 -91 14 -8 33 -14 41 -14 8 0 20 -7 27 -15 7 -8 25 -15 39 -15 15 0 36 -7 47 -15 10 -8 33 -15 50 -15 17 0 37 -7 44 -15 8 -9 30 -15 59 -15 25 -1 57 -7 71 -15 14 -8 50 -14 82 -15 31 0 92 -7 135 -15 86 -17 189 -18 273 -5 30 5 89 12 130 16 41 3 92 12 113 20 20 8 52 14 70 14 17 1 43 7 57 15 14 8 37 14 51 15 14 0 34 7 45 15 10 8 29 15 41 15 12 0 36 8 55 17 18 9 45 22 60 30 14 7 33 13 41 13 8 0 20 7 27 15 7 8 21 15 32 15 10 0 21 7 24 15 4 8 14 15 23 15 9 0 22 5 28 11 13 13 47 33 81 48 12 6 22 15 22 20 0 5 8 11 18 15 21 7 53 27 67 42 5 6 38 32 73 58 60 46 223 203 289 279 34 41 47 45 69 22 9 -8 34 -15 57 -15 23 0 51 -7 61 -15 11 -8 34 -15 51 -15 17 0 40 -7 51 -15 10 -8 30 -15 44 -15 14 0 34 -7 44 -15 11 -8 29 -15 41 -15 12 0 30 -7 41 -15 10 -8 27 -15 36 -15 9 0 29 -6 45 -14 15 -8 46 -22 68 -32 22 -9 47 -20 55 -25 8 -4 48 -25 89 -46 40 -21 76 -43 78 -50 3 -7 11 -13 19 -13 8 0 45 -30 82 -67 96 -95 137 -190 97 -223 -8 -7 -15 -21 -15 -31 0 -9 -28 -47 -63 -84 -58 -60 -82 -80 -127 -101 -8 -4 -19 -13 -23 -21 -4 -7 -17 -13 -27 -13 -10 0 -21 -4 -24 -9 -7 -11 -88 -51 -103 -51 -6 0 -16 -7 -23 -15 -7 -8 -23 -15 -35 -15 -12 0 -28 -7 -35 -15 -7 -8 -22 -15 -34 -15 -12 0 -31 -7 -42 -15 -10 -8 -30 -15 -44 -15 -14 0 -34 -7 -44 -15 -11 -8 -31 -15 -45 -15 -14 0 -35 -7 -45 -15 -11 -8 -34 -15 -51 -15 -17 0 -40 -7 -51 -15 -10 -8 -35 -15 -54 -15 -19 0 -46 -7 -60 -15 -14 -8 -43 -15 -65 -15 -22 0 -51 -7 -65 -15 -14 -8 -47 -15 -75 -15 -27 0 -61 -7 -75 -15 -14 -8 -50 -15 -80 -15 -30 0 -73 -7 -95 -15 -22 -8 -66 -14 -97 -15 -31 0 -83 -7 -115 -15 -31 -8 -93 -15 -138 -15 -44 0 -118 -7 -165 -15 -68 -12 -186 -15 -600 -15 -311 0 -532 4 -559 11 -24 5 -106 14 -182 18 -76 5 -143 12 -150 17 -7 4 -57 11 -110 15 -54 4 -107 12 -118 18 -11 6 -45 11 -76 11 -30 0 -72 7 -92 15 -19 8 -54 15 -77 15 -22 1 -52 7 -66 15 -14 8 -43 15 -65 15 -22 0 -51 7 -65 15 -14 8 -41 15 -60 15 -19 0 -44 7 -54 15 -11 8 -34 15 -51 15 -17 0 -40 7 -51 15 -10 8 -33 15 -50 15 -17 0 -37 7 -44 15 -7 8 -25 15 -39 15 -15 0 -36 7 -47 15 -10 8 -29 15 -40 15 -12 0 -27 7 -34 15 -7 8 -21 15 -32 15 -17 0 -41 10 -98 41 -8 5 -35 19 -60 31 -25 13 -51 29 -58 36 -7 6 -20 12 -28 12 -8 0 -14 5 -14 10 0 6 -8 13 -17 17 -24 8 -143 125 -143 139 0 6 -7 17 -15 24 -26 21 -20 123 10 170 34 54 176 180 203 180 5 0 15 7 22 15 7 8 20 15 30 15 10 0 23 7 30 15 7 8 20 15 30 15 10 0 23 7 30 15 7 8 20 15 30 15 10 0 23 7 30 15 7 8 23 15 35 15 12 0 28 7 35 15 7 8 25 15 40 15 15 0 33 7 40 15 7 8 22 15 34 15 12 0 31 7 42 15 10 8 30 15 42 15 13 0 36 6 50 14 30 15 93 33 166 46 27 5 54 14 60 20 23 23 54 10 89 -37z m773 -387 c15 -11 16 -17 7 -27 -16 -16 -43 -4 -43 21 0 24 9 25 36 6z m98 -42 c17 -6 22 -34 7 -34 -5 0 -19 9 -32 20 -19 15 -21 19 -7 20 9 0 23 -3 32 -6z m1201 -14 c-25 -25 -90 -40 -83 -19 4 14 58 37 88 38 11 1 10 -4 -5 -19z m2035 -35 c0 -8 -4 -15 -10 -15 -5 0 -10 7 -10 15 0 8 5 15 10 15 6 0 10 -7 10 -15z m0 -102 c0 -57 -43 -140 -107 -208 -36 -38 -133 -120 -153 -128 -18 -8 -46 -26 -79 -49 -13 -10 -30 -18 -37 -18 -24 0 -15 20 14 33 59 25 250 195 270 239 7 16 19 31 27 34 8 4 15 14 15 24 0 10 7 25 15 34 8 8 15 26 15 40 0 14 5 26 10 26 6 0 10 -12 10 -27z m-470 -453 c0 -5 -9 -10 -19 -10 -11 0 -44 -13 -74 -30 -53 -29 -97 -39 -97 -22 0 18 26 32 57 32 22 0 37 7 45 20 9 14 24 20 50 20 21 0 38 -4 38 -10z m-230 -85 c0 -9 -9 -15 -25 -15 -24 0 -32 10 -18 23 12 13 43 7 43 -8z m-90 -30 c0 -9 -9 -15 -25 -15 -24 0 -32 10 -18 23 12 13 43 7 43 -8z m-3575 -35 c-3 -5 -17 -10 -31 -10 -14 0 -22 4 -19 10 3 6 17 10 31 10 14 0 22 -4 19 -10z m73 -12 c20 -20 14 -30 -15 -26 -32 4 -46 38 -16 38 11 0 24 -5 31 -12z m3252 -23 c-14 -16 -50 -21 -50 -6 0 11 18 19 44 20 15 1 16 -2 6 -14z m-3080 -25 c0 -5 -11 -10 -25 -10 -14 0 -25 5 -25 10 0 6 11 10 25 10 14 0 25 -4 25 -10z m2850 -30 c0 -5 -13 -10 -30 -10 -16 0 -30 5 -30 10 0 6 14 10 30 10 17 0 30 -4 30 -10z m-2642 -18 c2 -7 -5 -12 -17 -12 -14 0 -19 5 -14 15 6 17 25 15 31 -3z m2439 2 c33 -9 18 -24 -23 -24 -32 0 -42 8 -27 23 8 8 21 9 50 1z m-2357 -14 c0 -5 -9 -10 -20 -10 -11 0 -20 5 -20 10 0 6 9 10 20 10 11 0 20 -4 20 -10z m2205 -20 c8 -13 -27 -26 -92 -33 -31 -4 -55 -2 -59 4 -10 16 4 23 44 21 20 -1 44 2 52 8 19 13 47 13 55 0z"/> </g> </svg> 